<svg width="32" height="40" viewBox="0 0 32 40" fill="none" xmlns="http://www.w3.org/2000/svg">
<path d="M30.9024 25.9186H24.5128C23.9319 25.9186 23.4672 26.447 23.4672 26.8698V32.0485C23.4672 32.577 22.8864 32.9997 22.4217 32.9997H12.4307C11.5013 32.9997 11.0366 32.0485 11.6174 31.4144L31.5994 8.37429C31.7156 8.2686 31.8318 7.95154 31.8318 7.74016V1.50454C31.948 1.08179 31.3671 0.553345 30.7862 0.553345H1.04557C0.580872 0.553345 0 1.08179 0 1.50454V12.6018C0 13.1303 0.580872 13.553 1.04557 13.553H7.43516C8.01604 13.553 8.48073 13.0246 8.48073 12.6018V7.95154C8.48073 7.42309 9.06161 7.00034 9.5263 7.00034H19.285C20.2143 7.00034 20.679 7.95154 20.0982 8.58567L0.232349 31.5201C0.116174 31.6258 0 31.9428 0 32.1542V38.4955C0 39.024 0.580872 39.4467 1.04557 39.4467H30.9024C31.4833 39.4467 31.948 38.9183 31.948 38.4955V26.8698C32.1803 26.2356 31.5994 25.9186 30.9024 25.9186ZM19.5173 11.1222L16.2644 17.6749L21.7246 18.2033L14.4056 26.5527L18.1232 19.7886L12.663 19.0488L19.5173 11.1222Z" fill="#9333EA"/>
</svg>
